# xmcd CD database file
#
# Track frame offsets:
#	182
#	20402
#	35147
#	50622
#	66922
#	86857
#	103255
#	116912
#	137565
#	151385
#	167917
#	182312
#	195915
#	223180
#	242347
#	265897
#	292430
#	311365
#
# Disc length: 4358 seconds
#
# Revision: 5
# Processed by: cddbd v1.5.2PL0 Copyright (c) Steve Scherf et al.
# Submitted via: CDex 1.51
#
DISCID=0e110412
DTITLE=Various Artist - Blues Fest - Modern Blues Of The '90s
DYEAR=1995
DGENRE=Blues
TTITLE0=Buddy Guy - Damn Right, I've Got The Blues
TTITLE1=Lucky Peterson - Don't Cloud Up On Me
TTITLE2=Larry McCray - Nobody Never Hurt Nobody With The Blues
TTITLE3=Smokey Wilson - Don't Burn Down L.A.
TTITLE4=William Clarke - Pawnshop Bound
TTITLE5=Rod Piazza and The Mighty Flyers - In The Dark
TTITLE6=Etta James - Wet Match
TTITLE7=Charles Brown - Too Late
TTITLE8=Robert Ward and The Black Top All-Stars - Your Love Is Real
TTITLE9=Angela Strehli - Two Bit Texas Town
TTITLE10=The Holmes Brothers - Squeal Like An Eel
TTITLE11=Billy Boy Arnold - Move On Down The Road
TTITLE12=Satan and Adam - I Want You
TTITLE13=Taj Mahal - Blues Ain't Nothin'
TTITLE14=Willie Kent - Ain't It Nice
TTITLE15=John Primer - Inflation Blues
TTITLE16=R.L. Burnside - Old Black Mattie
TTITLE17=Lonnie Pitchford - See See Rider
EXTD=YEAR: 1995
EXTT0=Buddy Guy
EXTT1=Lucky Peterson
EXTT2=Larry McCray
EXTT3=Smokey Wilson
EXTT4=William Clarke
EXTT5=Rod Piazza and The Mighty Flyers
EXTT6=Etta James
EXTT7=Charles Brown
EXTT8=Robert Ward and The Black Top All-Stars
EXTT9=Angela Strehli
EXTT10=The Holmes Brothers
EXTT11=Billy Boy Arnold
EXTT12=Satan and Adam
EXTT13=Taj Mahal
EXTT14=Willie Kent
EXTT15=John Primer
EXTT16=R. L. Burnside
EXTT17=Lonnie Pitchford
PLAYORDER=
